<?xml version="1.0" encoding="UTF-8" standalone="no"?>
<!DOCTYPE svg PUBLIC "-//W3C//DTD SVG 1.1//EN" "http://www.w3.org/Graphics/SVG/1.1/DTD/svg11.dtd">
<svg width="100%" height="100%" viewBox="0 0 71 74" version="1.1" xmlns="http://www.w3.org/2000/svg" xmlns:xlink="http://www.w3.org/1999/xlink" xml:space="preserve" xmlns:serif="http://www.serif.com/" style="fill-rule:evenodd;clip-rule:evenodd;stroke-linecap:round;stroke-linejoin:round;stroke-miterlimit:1.5;">
    <g transform="matrix(1,0,0,1,-1207.97,-1323.24)">
        <g transform="matrix(1,0,0,1,0.661055,0.220346)">
            <path d="M1209.28,1352.1L1263.6,1352.1C1263.6,1352.1 1264.09,1352.11 1264.87,1352.14C1267.83,1352.24 1270.62,1353.51 1272.64,1355.68C1274.66,1357.85 1275.73,1360.73 1275.62,1363.69C1275.31,1371.82 1274.95,1381.4 1274.95,1381.4C1274.95,1381.4 1274.93,1381.53 1274.9,1381.75C1274.53,1384.17 1272.83,1386.18 1270.49,1386.94C1268.15,1387.69 1265.6,1387.05 1263.88,1385.29C1260.34,1381.64 1257.1,1378.32 1257.1,1378.32L1220.52,1341.74" style="fill:none;stroke:black;stroke-width:3.95px;"/>
        </g>
        <g transform="matrix(1,0,0,-1,0.661055,2719.84)">
            <path d="M1209.28,1352.1L1263.6,1352.1C1263.6,1352.1 1264.09,1352.11 1264.87,1352.14C1267.83,1352.24 1270.62,1353.51 1272.64,1355.68C1274.66,1357.85 1275.73,1360.73 1275.62,1363.69C1275.31,1371.82 1274.95,1381.4 1274.95,1381.4C1274.95,1381.4 1274.93,1381.53 1274.9,1381.75C1274.53,1384.17 1272.83,1386.18 1270.49,1386.94C1268.15,1387.69 1265.6,1387.05 1263.88,1385.29C1260.34,1381.64 1257.1,1378.32 1257.1,1378.32L1220.52,1341.74" style="fill:none;stroke:black;stroke-width:3.95px;"/>
        </g>
    </g>
</svg>
